<svg width="96" height="96" viewBox="0 0 96 96" fill="none" xmlns="http://www.w3.org/2000/svg">
  <!-- Círculo base -->
  <circle cx="48" cy="48" r="44" stroke="#7CA14A" stroke-width="4" fill="none"/>

  <!-- Olho central -->
  <path d="M24 48C32 36 64 36 72 48C64 60 32 60 24 48Z" fill="#DC3A78" stroke="white" stroke-width="2"/>
  <circle cx="48" cy="48" r="6" fill="white"/>
  <circle cx="50" cy="46" r="2" fill="#DC3A78"/>

  <!-- Pétalas de sakura ao redor -->
  <path d="M48 14C50 20 52 24 48 28C44 24 46 20 48 14Z" fill="#DC3A78"/>
  <path d="M82 48C76 50 72 52 68 48C72 44 76 46 82 48Z" fill="#DC3A78"/>
  <path d="M48 82C46 76 44 72 48 68C52 72 50 76 48 82Z" fill="#DC3A78"/>
  <path d="M14 48C20 46 24 44 28 48C24 52 20 50 14 48Z" fill="#DC3A78"/>
</svg>
